# xmcd CD database file
#
# Track frame offsets:
#	150
#	17735
#	38140
#	59490
#	79612
#	101400
#	117282
#	136992
#	155087
#
# Disc length: 2322 seconds
#
# Revision: 0
# Processed by: cddbd v1.5.1PL0 Copyright (c) Steve Scherf et al.
# Submitted via: CDex 1.51
#
DISCID=6f091009
DTITLE=Paul Anka - Walk A Fine Line
DYEAR=1983
DGENRE=Weastcoast/AOR
TTITLE0=Second Chance
TTITLE1=Hold Me 'Til The Mornin' Comes
TTITLE2=Darlin' Darlin'
TTITLE3=No Way Out
TTITLE4=Walk A Fine Line
TTITLE5=Take Me In Your Arms
TTITLE6=This Is The First Time
TTITLE7=Gimme The Word (Duet with Karla DeVito)
TTITLE8=Golden Boy
EXTD=YEAR: 1983
EXTT0=
EXTT1=
EXTT2=
EXTT3=
EXTT4=
EXTT5=
EXTT6=
EXTT7=
EXTT8=
PLAYORDER=
